<?xml version="1.0" encoding="utf-8"?>
<!-- Generator: Adobe Illustrator 24.3.0, SVG Export Plug-In . SVG Version: 6.00 Build 0)  -->
<svg version="1.1" id="Layer_1" xmlns="http://www.w3.org/2000/svg" xmlns:xlink="http://www.w3.org/1999/xlink" x="0px" y="0px"
	 viewBox="0 0 80 140" style="enable-background: new 0 0 80 140;" xml:space="preserve">
<style type="text/css">
  /* stylelint-disable */
  .st0 {fill: #fff;
    filter: url(#Adobe_OpacityMaskFilter);}
  .st1 {mask: url(#a_1_);}
  .st2 {fill: #1493d3;}
  .st3 {fill: #16a3ea;}
  .st4 {fill: #159cde;}
</style>
<defs>
	<filter id="Adobe_OpacityMaskFilter" filterUnits="userSpaceOnUse" x="0" y="0" width="80" height="140">
		<feColorMatrix  type="matrix" values="1 0 0 0 0  0 1 0 0 0  0 0 1 0 0  0 0 0 1 0"/>
	</filter>
</defs>
<mask maskUnits="userSpaceOnUse" x="0" y="0" width="80" height="140" id="a_1_">
	<path class="st0" d="M0,0h80v140H0V0z"/>
</mask>
<g class="st1">
	<path class="st2" d="M80,92.4L40,70l40-22.6V92.4z M40,22.4L0,0h80L40,22.4z M0,140l40-22.3l40,22.3L0,140z"/>
	<path class="st3" d="M40,70l40,22.4l0,47.6l-40-22.3V70z"/>
	<path class="st4" d="M80,0L40,22.4L40,70l40-22.6V0z"/>
	<path class="st2" d="M0,92.4v-45L40,70L0,92.4z"/>
	<path class="st3" d="M0,0l40,22.4V70L0,47.4V0z"/>
	<path class="st4" d="M40,70L0,92.4V140l40-22.3V70z"/>
</g>
</svg>
