<?xml version="1.0" encoding="utf-8"?>
<!-- Generator: Adobe Illustrator 25.0.1, SVG Export Plug-In . SVG Version: 6.00 Build 0)  -->
<svg version="1.1" id="Layer_2" xmlns="http://www.w3.org/2000/svg" xmlns:xlink="http://www.w3.org/1999/xlink" x="0px" y="0px"
	 viewBox="0 0 81.5 92.2" style="enable-background:new 0 0 81.5 92.2;" xml:space="preserve">
<path d="M81.5,67.7c0-0.6-0.5-1.1-1.1-1.1c-0.2,0-0.5,0.1-0.7,0.2c-8.3,6.8-24,10.3-39,10.3s-30.7-3.6-39-10.3
	c-0.5-0.4-1.1-0.3-1.5,0.1C0.1,67.2,0,67.5,0,67.7v7.4c0,9.5,18.2,17.2,40.7,17.2s40.7-7.7,40.7-17.2V67.7z"/>
<path d="M0,55.8c0,9.5,18.2,17.2,40.7,17.2s40.7-7.7,40.7-17.2v-7.4c0-0.6-0.5-1.1-1.1-1.1c-0.2,0-0.5,0.1-0.7,0.2
	c-8.3,6.8-24,10.3-39,10.3s-30.7-3.6-39-10.3c-0.5-0.4-1.1-0.3-1.5,0.1C0.1,47.9,0,48.2,0,48.4L0,55.8z"/>
<path d="M40.7,38.6c-15,0-30.7-3.6-39-10.3c-0.5-0.4-1.1-0.3-1.5,0.1C0.1,28.6,0,28.8,0,29.1v7.4c0,9.5,18.2,17.2,40.7,17.2
	s40.7-7.7,40.7-17.2v-7.4c0-0.6-0.5-1.1-1.1-1.1c-0.2,0-0.5,0.1-0.7,0.2C71.4,35,55.8,38.6,40.7,38.6z"/>
<ellipse cx="40.7" cy="17.2" rx="40.7" ry="17.2"/>
</svg>
