<?xml version="1.0" encoding="utf-8"?>
<!-- Generator: Adobe Illustrator 25.0.1, SVG Export Plug-In . SVG Version: 6.00 Build 0)  -->
<svg version="1.1" xmlns="http://www.w3.org/2000/svg" xmlns:xlink="http://www.w3.org/1999/xlink" x="0px" y="0px"
	 viewBox="0 0 114.8 119.3" style="enable-background: new 0 0 114.8 119.3;" xml:space="preserve">
<g id="Layer_2">
</g>
<g id="Layer_5">
	<g>
		<path class="geoip-icon-st0" d="M88.7,33.6c0.8,0.2,1.6,0.2,2.4,0.3c6.8,0,12.3-5.5,12.3-12.3c0-6.8-5.5-12.4-12.3-12.4
			c-6.8,0-12.3,5.5-12.3,12.3c0,1.5,0.3,3,0.8,4.3C80.9,29.7,84.4,32.7,88.7,33.6z"/>
		<path d="M81,63.2c-3.2-4.5-6.3-9.3-9.1-14c0.7,4.6,1.1,9.3,1.2,14H81z"/>
		<path d="M95.1,71.1c-2.6,3.6-4.3,5.9-4.3,5.8c-1.8-2.6-3.8-5.3-5.9-8.2H73.2C73,74.8,72.4,80.9,71.3,87c5.5,0.7,10.9,2,16,3.8
			C91.5,85,94.2,78.2,95.1,71.1z"/>
		<path d="M19.8,90.8c5.1-1.8,10.5-3.1,16-3.8c-1.1-6.1-1.8-12.2-1.9-18.3H11.8C12.2,76.6,15.1,84.3,19.8,90.8z"/>
		<path d="M39.2,98.4c-0.7-2.1-1.5-4.3-2.1-6.6c-4.7,0.5-9.2,1.6-13.7,3c5.4,5.7,12.4,9.9,20,11.8C41.7,104.1,40.2,101.3,39.2,98.4z
			"/>
		<path d="M70,91.8c-0.6,2.3-1.3,4.5-2.1,6.6c-1.1,2.9-2.5,5.7-4.2,8.2c7.6-2,14.6-6.1,20-11.8C79.3,93.4,74.7,92.4,70,91.8z"/>
		<path d="M53.5,107.9c4.1-0.4,8.3-6.6,11.1-16.8c-3.5-0.3-7.1-0.5-11.1-0.5c-4,0-7.6,0.2-11.1,0.5
			C45.2,101.3,49.5,107.5,53.5,107.9z"/>
		<path d="M53.5,23.2c-4.2,0.3-8.6,6.6-11.3,17c3.5,0.3,7.3,0.5,11.3,0.5c4,0,7.8-0.2,11.3-0.5C62.1,29.8,57.7,23.5,53.5,23.2z"/>
		<path d="M100.9,62.4c0.1,1.1,0.1,2.1,0.1,3.2c0,9.7-3,19.2-8.4,27.1c-1,1.5-2.1,2.9-3.2,4.2c-9.4,10.8-22.6,16.3-35.8,16.4
			c-13.3,0-26.5-5.5-35.8-16.4c-1.1-1.3-2.2-2.7-3.2-4.2C9,84.8,6,75.3,6,65.6s2.9-19,8.4-26.9c0.9-1.5,2-2.9,3.2-4.3
			C26.7,24,39.7,18,53.5,18c3.3,0,6.6,0.4,9.8,1c0.3-1.9,0.9-3.8,1.5-5.5c-3.7-0.8-7.4-1.2-11.3-1.2C24,12.3,0,36.2,0,65.8
			c0,29.6,24,53.5,53.5,53.5c29.6,0,53.5-24,53.5-53.5c0-3.9-0.4-7.6-1.2-11.2C104.2,57.3,102.5,60,100.9,62.4z"/>
		<path d="M53.5,85.7c4.1,0,8.4,0.2,12.5,0.6c1.1-5.8,1.8-11.7,1.9-17.6H53.5H39.2c0.1,5.9,0.7,11.8,1.9,17.6
			C45.1,85.9,49.4,85.7,53.5,85.7z"/>
		<path d="M23.2,36.5c4.5,1.5,9,2.6,13.7,3.2c0.6-2.4,1.4-4.7,2.2-6.9c1.1-2.9,2.5-5.7,4.3-8.2C35.6,26.6,28.7,30.7,23.2,36.5z"/>
		<path d="M11.8,63.2h22.1c0.1-6,0.8-12.1,1.9-18c-5.5-0.7-10.9-2.1-16.1-4C15,47.7,12.2,55.3,11.8,63.2z"/>
		<path d="M41.1,45.9c-1.1,5.7-1.7,11.5-1.8,17.4h14.2h14.2C67.6,57.4,67,51.6,66,45.9c-4.1,0.4-8.2,0.6-12.4,0.6
			C49.4,46.4,45.2,46.2,41.1,45.9z"/>
		<path d="M71.8,39.5c0.8,1.7,1.8,3.4,2.8,5.2c3.6,6.4,8.2,12.8,12.3,18.5c1.4,1.9,2.7,3.7,3.9,5.5c0.1,0.2,0.2,0.3,0.3,0.5
			c0,0,0.2-0.2,0.4-0.5c1.1-1.5,4.7-6.3,8.7-12.5c6.7-10.4,14.7-24.3,14.7-31.9C115,11,104.6,0.2,91.5,0
			C79.4-0.2,69.3,8.5,67.6,20.1c-0.2,1.1-0.3,2.1-0.3,3.2c0,0.3,0,0.5,0,0.8c0,0.5,0,1.1,0.1,1.6C67.7,30,69.4,34.7,71.8,39.5z
			 M91,9.1c6.8,0,12.3,5.6,12.3,12.4c0,6.8-5.6,12.3-12.3,12.3c-0.8,0-1.6-0.1-2.4-0.3c-4.3-0.9-7.7-3.9-9.2-7.9
			c-0.5-1.3-0.8-2.8-0.8-4.3C78.7,14.6,84.3,9.1,91,9.1z"/>
	</g>
</g>
</svg>
