<?xml version="1.0" encoding="utf-8"?>
<!-- Generator: Adobe Illustrator 25.0.1, SVG Export Plug-In . SVG Version: 6.00 Build 0)  -->
<svg version="1.1" id="Layer_1" xmlns="http://www.w3.org/2000/svg" xmlns:xlink="http://www.w3.org/1999/xlink" x="0px" y="0px"
	 viewBox="0 0 114.8 119.3" style="enable-background:new 0 0 114.8 119.3;" xml:space="preserve">
<g transform="translate(14.0684 0) scale(.76045)">
	<path d="M114.8,81.5v1.2h-0.6c-2.2,3.1-4.1,5.8-5.6,8h6.3c0,0-5,23-11.9,32.3l0,0c-7.8-2.7-15.8-4.7-23.9-5.8v0
		c1.7-8.8,2.6-17.6,2.8-26.6h11.9c-0.3-1-0.5-1.3-0.8-1.4c-1.6-2.2-3.3-4.5-5-6.6h-6.2c0-3.6-0.3-6.9-0.5-10.2l0,0
		c-5.1-7.5-9.5-15.4-13.1-23.6c-5,0.5-10.3,0.6-15.9,0.6c-6.1,0-11.9-0.3-17.2-0.8c4.2-15.7,10.9-25.2,17.2-25.2
		c4.2,0,8.6,4.2,12.2,11.9l0,0C64.1,34.2,64,33,64,31.7h0c0-5,1-9.9,3-14.4l0,0c-4.9-1.1-10-1.6-15-1.6l0,0
		c-20.5,0-39.9,8.9-53.3,24.4h0c-1.8,2-3.4,4.1-4.8,6.3v0C-14.2,58.1-18.5,72-18.5,86.3l0,0c0,14.3,4.4,28.4,12.5,40.2l0,0
		c1.5,2.2,3.1,4.3,4.8,6.2l0,0c25.4,29.3,69.8,32.5,99.1,7.1c2.5-2.2,4.9-4.6,7.1-7.1v0c1.7-2,3.4-4.1,4.8-6.3h0
		c8.2-11.8,12.6-25.8,12.5-40.2l0,0c-0.1-5-0.6-10-1.6-14.9c-1.9,3.6-6.1,10-6.1,10L114.8,81.5z M52.5,57.9c6.2,0,12.7-0.3,18.9-0.9
		l0,0c1.7,8.5,2.6,17.1,2.7,25.8H30.8v0c0.2-8.7,1.1-17.3,2.7-25.8C39.7,57.6,46.1,57.9,52.5,57.9L52.5,57.9z M74,90.8L74,90.8
		c-0.1,8.8-1.1,17.5-2.8,26.1l0,0c-6.3-0.6-12.6-0.9-18.9-0.9c-6.2,0-12.7,0.3-18.9,0.9l0,0c-1.7-8.6-2.6-17.4-2.8-26.1L74,90.8z
		 M36.9,25.6L36.9,25.6c-2.6,3.8-4.7,7.9-6.3,12.2v0c-1.3,3.3-2.4,6.7-3.3,10.2l0,0C20.4,47,13.6,45.4,7,43.2v0
		C15.1,34.6,25.4,28.5,36.9,25.6L36.9,25.6z M1.7,50.1L1.7,50.1c7.7,2.8,15.7,4.8,23.9,5.9v0c-1.6,8.8-2.6,17.8-2.8,26.7H-10h0
		C-9.3,71-5.2,59.7,1.7,50.1L1.7,50.1z M1.9,123.6L1.9,123.6c-7-9.6-11.2-21-11.9-32.8h32.8l0,0c0.2,9.1,1.1,18.1,2.8,27.1h0
		C17.5,119,9.5,120.9,1.9,123.6L1.9,123.6z M7.2,129.6L7.2,129.6c6.6-2.1,13.4-3.7,20.3-4.5c0.9,3.4,2,6.7,3.1,9.8l0,0
		c1.6,4.3,3.7,8.4,6.2,12.2l0,0C25.5,144.2,15.2,138.1,7.2,129.6L7.2,129.6z M52.5,149c-6.2,0-12.8-9.4-17-24.9
		c5.3-0.5,10.9-0.8,17-0.8s11.7,0.3,17,0.8C65.1,139.6,58.6,149,52.5,149z M67.9,147.1L67.9,147.1c2.6-3.8,4.7-7.9,6.3-12.2v0
		c1.2-3.2,2.3-6.5,3.1-9.8l0,0c6.9,0.9,13.7,2.4,20.3,4.5v0C89.6,138.1,79.3,144.1,67.9,147.1L67.9,147.1z"/>
	<path d="M132.4,31.8L132.4,31.8C132.7,14.5,119,0.3,101.8,0C84.5-0.3,70.3,13.4,70,30.7c0,0.4,0,0.7,0,1.1
		C70,49,89.2,74,101.2,90.9C101.4,91.1,132.4,49,132.4,31.8L132.4,31.8z M85,28.2L85,28.2c0-9,7.3-16.2,16.2-16.2
		c9,0,16.2,7.3,16.2,16.3c0,9-7.3,16.2-16.2,16.2l0,0C92.2,44.4,85,37.2,85,28.2L85,28.2z"/>
</g>
</svg>
