<svg xmlns="http://www.w3.org/2000/svg" viewBox="0 0 276 108">
	<path fill="#ffffff" d="M19.5 108V91.7l-7 10.7h-0.1l-7-10.6V108H0V82.9h5.9l6.6 10.6 6.6-10.6H25V108H19.5z"/>
	<path fill="#ffffff" d="M61.9 108l-2.3-5.6H49l-2.3 5.6h-5.6l10.7-25.3h5.1L67.6 108H61.9zM54.3 89.4L51 97.5h6.6L54.3 89.4z"/>
	<path fill="#ffffff" d="M98.7 108l-5.6-8.6 -5.6 8.6h-6.3l8.7-12.7 -8.4-12.3h6.4l5.3 8.1 5.3-8.1h6.3l-8.4 12.2 8.7 12.8H98.7z"/>
	<polygon fill="none" stroke="#FFFFFF" stroke-linecap="round" stroke-linejoin="round" stroke-miterlimit="7" points="212.4 56.2 257 2.8 264.4 72.8 273.6 32.2 "/>
	<polygon fill="none" stroke="#FFFFFF" stroke-linecap="round" stroke-linejoin="round" stroke-miterlimit="6" points="212.4 56.2 167.7 23 167.7 73.4 108.1 40.5 "/>
	<path fill="#ffffff" d="M141 108V91.7l-7 10.7h-0.1l-7-10.6V108h-5.4V82.9h5.9l6.6 10.6 6.6-10.6h5.9V108H141z"/>
	<path fill="#ffffff" d="M164.9 108V82.9h5.5V108H164.9z"/>
	<path fill="#ffffff" d="M206.5 108l-12.1-15.9V108H189V82.9h5.1l11.7 15.4V82.9h5.4V108H206.5z"/>
	<path fill="#ffffff" d="M239.2 108h-9.8V82.9h9.8c7.9 0 13.3 5.4 13.3 12.4v0.1C252.5 102.5 247.1 108 239.2 108zM246.8 95.5c0-4.4-3-7.5-7.5-7.5H235v15.1h4.3C243.7 103 246.8 100 246.8 95.5L246.8 95.5z"/>
	<path fill="#ffffff" d="M164.9 76.1v-5.6h5.5V76L164.9 76.1 164.9 76.1z"/>
	<path fill="#ffffff" d="M105.8 38.4c1.1-1 2.9-0.8 3.9 0.3 1 1.2 0.9 2.9-0.2 3.9 -1.1 1-2.9 0.8-3.9-0.3C104.6 41.1 104.7 39.4 105.8 38.4z"/>
	<path fill="#ffffff" d="M165.6 20.9c1.1-1 2.8-0.9 3.8 0.2 1 1.1 0.9 2.8-0.2 3.8s-2.8 0.9-3.8-0.2S164.5 21.8 165.6 20.9z"/>
	<path fill="#ffffff" d="M214.1 54.2c-1-1.1-2.7-1.3-3.9-0.3 -1.1 1-1.2 2.7-0.2 3.9 1 1.1 2.7 1.2 3.9 0.2C215 57.1 215.1 55.4 214.1 54.2z"/>
	<path fill="#ffffff" d="M258.8 1c-1-1.1-2.7-1.3-3.9-0.3 -1.1 1-1.2 2.7-0.2 3.9 1 1.1 2.7 1.2 3.9 0.2C259.7 3.9 259.8 2.1 258.8 1z"/>
	<path fill="#ffffff" d="M271.4 30.1c1.1-1 2.9-0.8 3.9 0.3 1 1.2 0.9 2.9-0.2 3.9 -1.1 1-2.9 0.8-3.9-0.3C270.2 32.9 270.3 31.1 271.4 30.1z"/>
	<path fill="#ffffff" d="M262.3 70.7c1.1-1 2.8-0.9 3.8 0.2s0.9 2.8-0.2 3.8c-1.1 1-2.8 0.9-3.8-0.2C261.1 73.4 261.2 71.7 262.3 70.7z"/>
	<path fill="#ffffff" d="M257.5 87.5L257.5 87.5c0-3.9 3.1-7.2 7.2-7.2 4.1 0 7 3.3 7 7l0 0c0 3.9-3.1 7-7.2 7C260.6 94.5 257.5 91.4 257.5 87.5zM271 87.5L271 87.5c0-3.6-2.8-6.5-6.3-6.5 -3.7 0-6.5 2.9-6.5 6.5l0 0c0 3.6 2.8 6.3 6.3 6.3C268.2 94 271 91 271 87.5zM261.9 83.6h3.3c1 0 1.6 0.3 2.1 0.8 0.3 0.3 0.7 0.8 0.7 1.5l0 0c0 1.1-0.8 2-2 2.1l2.3 2.9H267l-2.1-2.8h-1.8V91H262L261.9 83.6 261.9 83.6zM265 87.1c1 0 1.8-0.5 1.8-1.3l0 0c0-0.8-0.7-1.3-1.6-1.3h-2.1v2.6C263 87.1 265 87.1 265 87.1z"/>
</svg>
