<svg xmlns="http://www.w3.org/2000/svg" xmlns:xlink="http://www.w3.org/1999/xlink" version="1.1" id="Layer_1" x="0px" y="0px" viewBox="0 0 200 34.505" enable-background="new 0 0 200 34.505" xml:space="preserve">
<path fill="#FFFFFF" d="M45.423,17.628c-0.073-0.251-0.433-1.401-1.546-2.215c-0.767-0.561-1.533-0.7-2.16-0.815  c-1.609-0.293-2.001,0.213-3.133-0.276c-0.671-0.29-1.273-0.788-1.434-0.922c-0.3-0.251-0.347-0.334-0.865-0.865  c-1.067-1.093-1.344-1.228-2.064-2.064c-0.54-0.627-0.702-0.92-0.767-1.043c-0.101-0.193-0.341-0.685-0.47-1.495  c-0.205-1.293,0.171-1.507-0.014-2.61c-0.001-0.005-0.001-0.01-0.002-0.015c-0.001-0.002-0.001-0.004-0.001-0.006  c-0.022-0.127-0.049-0.248-0.078-0.363c-0.08-0.336-0.2-0.654-0.355-0.952c-0.037-0.073-0.071-0.138-0.102-0.193  c-0.026-0.043-0.05-0.087-0.077-0.129c-0.023-0.037-0.042-0.066-0.054-0.084c-0.031-0.047-0.118-0.173-0.243-0.329  c-0.001-0.001-0.001-0.001-0.002-0.002c-0.292-0.365-0.814-0.914-1.499-1.152c-0.005-0.002-0.011-0.003-0.016-0.004  c-1.053-0.5-2.354-0.57-3.733,0.086c-1.633,0.986-2.125,2.041-2.144,3.232c-0.019,0.164-0.032,0.329-0.032,0.499  c0,0.567,0.114,1.106,0.318,1.599c0.127,0.575,0.272,1.18,0.387,1.822c0.121,0.676,0.212,1.353,0.27,2.024  c0.005,0.126,0.007,0.188,0.01,0.304c0.001,0.017,0.001,0.05,0.002,0.093c0.001,0.071,0.001,0.128,0.001,0.159  c0,0.012,0,0.056-0.001,0.114c-0.002,0.136-0.009,0.265-0.011,0.308c-0.018,0.341-0.084,0.804-0.084,0.804  c-0.031,0.213-0.065,0.427-0.146,0.875c-0.08,0.442-0.121,0.667-0.185,0.979c-0.134,0.657-0.208,1.02-0.352,1.51  c-0.131,0.445-0.261,0.797-0.344,1.009c-0.155,0.398-0.292,0.687-0.426,0.971c-0.206,0.435-0.309,0.652-0.446,0.867  c-0.154,0.243-0.365,0.568-0.736,0.888c-0.238,0.205-0.456,0.334-0.659,0.454c-0.099,0.058-0.349,0.205-0.662,0.336  c-0.115,0.048-0.249,0.103-0.365,0.146c-0.168,0.05-0.332,0.105-0.511,0.141c-0.363,0.073-0.731,0.097-1.102,0.083  c-0.051-0.003-0.107-0.008-0.171-0.014c-0.206-0.021-0.364-0.049-0.444-0.065c-0.051-0.01-0.211-0.042-0.421-0.101  c-0.051-0.015-0.348-0.1-0.644-0.226c-0.334-0.143-0.638-0.326-1.006-0.592c-0.42-0.303-0.764-0.614-1.435-1.225  c-0.159-0.144-0.152-0.14-0.969-0.895c-0.78-0.72-0.76-0.7-0.777-0.717c-0.432-0.427-1.188-1.173-1.551-2.324  c-0.178-0.564-0.206-1.045-0.218-1.293c-0.001-0.009,0-0.015-0.001-0.024c0.003-0.102,0.01-0.203,0.022-0.303  c0.036-0.29,0.052-0.578,0.055-0.862c0.013-0.15,0.023-0.321,0.022-0.541c-0.001-0.166-0.01-0.796-0.186-1.592  c-0.004-0.017-0.008-0.033-0.012-0.05c-0.092-0.479-0.246-0.935-0.448-1.364C11.35,9.088,11.306,9,11.286,8.96  c-0.006-0.011-0.011-0.021-0.017-0.031c-0.004-0.008-0.009-0.016-0.013-0.024C10.946,8.32,10.6,7.948,10.6,7.948l-0.002,0.001  c-1.058-1.253-2.638-2.05-4.405-2.05c-3.185,0-5.766,2.581-5.766,5.766c0,0.852,0.189,1.657,0.521,2.385  c0.596,1.739,1.91,3.125,3.828,3.322c0.002,0.001,0.003,0.005,0.006,0.006c0.009,0.005,0.099,0.01,0.265,0.019  c0.001,0,0.003,0,0.004,0c0.073,0.004,0.158,0.008,0.263,0.013c0.15,0.007,0.306,0.015,0.517,0.022  c0.168,0.006,0.321,0.01,0.516,0.013c0.431,0.008,0.763,0.009,0.839,0.01c0.978,0.005,1.467,0.007,2.098,0.093  c0.103,0.014,0.196,0.029,0.286,0.044c0.026,0.005,0.054,0.008,0.08,0.013c0.018,0.003,0.032,0.006,0.049,0.009  c0.478,0.097,0.933,0.221,1.368,0.375c0.001,0,0.002,0.001,0.003,0.001c0.014,0.005,0.028,0.011,0.042,0.017  c0.893,0.341,1.5,0.765,1.64,0.865c0.251,0.179,0.429,0.333,0.787,0.642c0.323,0.279,0.565,0.507,0.767,0.699  c0.413,0.392,0.709,0.696,0.773,0.763c0.08,0.083,0.275,0.292,0.664,0.711c0.382,0.412,0.429,0.464,0.505,0.556  c0.11,0.134,0.195,0.239,0.269,0.333c0.115,0.183,0.204,0.352,0.279,0.513c0.012,0.035,0.027,0.072,0.049,0.108  c0.717,1.677-0.56,2.295,0.091,5.114c0.523,2.264,2.082,3.65,3.887,4.193c0.572,0.19,1.182,0.297,1.818,0.297  c0.831,0,1.619-0.179,2.333-0.496c1.443-0.595,2.647-1.761,3.153-3.488c0.001-0.006,0.002-0.011,0.003-0.017  c0.179-0.556,0.278-1.149,0.278-1.765c0-1.188-0.36-2.292-0.976-3.209c-0.347-0.735-0.734-1.449-1.049-2.22  c-0.003-0.014-0.011-0.034-0.027-0.066c-0.051-0.128-0.1-0.258-0.146-0.389c-0.013-0.041-0.022-0.073-0.025-0.084  c0,0-0.023-0.08-0.043-0.16c-0.178-0.704-0.141-1.657-0.141-1.657c0.023-0.579,0.099-1.011,0.169-1.403  c0.072-0.399,0.141-0.675,0.264-1.165c0.097-0.387,0.187-0.711,0.436-1.578c0.254-0.884,0.38-1.326,0.4-1.377  c0,0,0.378-0.962,1.024-1.804c0.099-0.13,0.2-0.246,0.2-0.246c0.072-0.083,0.133-0.148,0.166-0.183c0,0,0.021-0.022,0.046-0.048  c0.274-0.242,0.549-0.554,0.914-0.745c0.602-0.316,1.289-0.428,2.125-0.056c0.332,0.148,0.614,0.376,1.179,0.832  c0.295,0.239,0.683,0.574,1.545,1.46c0.827,0.85,1.241,1.275,1.399,1.505c0.166,0.241,0.767,1.154,1.022,2.496  c0.148,0.778,0.001,0.767,0.154,1.739c0.135,0.858,0.249,1.581,0.716,2.335c0.58,0.935,1.377,1.392,1.561,1.494  c1.439,0.794,2.844,0.458,3.097,0.393c1.724-0.444,2.517-1.813,2.641-2.037C45.181,20.644,45.906,19.29,45.423,17.628z"/>
<g>
	<g>
		<path fill="#FFFFFF" d="M67.392,8.186h2.982c0.493,0,0.908,0.415,0.908,0.934v16.287c0,0.519-0.415,0.934-0.908,0.934h-2.619    c-0.493,0-0.908-0.415-0.908-0.934v-9.855l-4.46,7.34c-0.182,0.285-0.467,0.441-0.804,0.441h-0.596    c-0.312,0-0.623-0.156-0.778-0.441l-4.46-7.34v9.855c0,0.519-0.415,0.934-0.934,0.934h-2.594c-0.519,0-0.934-0.415-0.934-0.934    V9.12c0-0.519,0.415-0.934,0.934-0.934h2.957c0.493,0,0.934,0.259,1.193,0.674l4.902,8.066l4.927-8.066    C66.459,8.445,66.899,8.186,67.392,8.186z"/>
		<path fill="#FFFFFF" d="M89.538,25.537l-0.804-2.594h-6.872l-0.804,2.594c-0.155,0.467-0.596,0.804-1.115,0.804h-2.826    c-0.467,0-0.804-0.467-0.649-0.934l5.939-16.469c0.155-0.441,0.597-0.752,1.089-0.752H87.1c0.493,0,0.934,0.311,1.09,0.752    l5.913,16.469c0.182,0.467-0.155,0.934-0.649,0.934h-2.801C90.134,26.341,89.693,26.004,89.538,25.537z M87.671,19.598    l-2.387-7.573l-2.36,7.573H87.671z"/>
		<path fill="#FFFFFF" d="M113.785,26.341h-2.983c-0.492,0-0.934-0.259-1.167-0.648l-3.138-5.057l-3.112,5.057    c-0.233,0.389-0.7,0.648-1.167,0.648h-2.983c-0.545,0-0.882-0.597-0.597-1.063l5.187-8.273L99.08,9.249    c-0.285-0.467,0.052-1.063,0.596-1.063h2.983c0.493,0,0.934,0.259,1.194,0.674l2.645,4.539l2.671-4.539    c0.26-0.415,0.7-0.674,1.194-0.674h2.983c0.544,0,0.881,0.597,0.596,1.063l-4.746,7.755l5.187,8.273    C114.667,25.744,114.33,26.341,113.785,26.341z"/>
		<path fill="#FFFFFF" d="M135.983,8.186h2.982c0.493,0,0.908,0.415,0.908,0.934v16.287c0,0.519-0.415,0.934-0.908,0.934h-2.619    c-0.492,0-0.907-0.415-0.907-0.934v-9.855l-4.461,7.34c-0.182,0.285-0.467,0.441-0.804,0.441h-0.596    c-0.311,0-0.623-0.156-0.778-0.441l-4.461-7.34v9.855c0,0.519-0.415,0.934-0.934,0.934h-2.594c-0.519,0-0.934-0.415-0.934-0.934    V9.12c0-0.519,0.415-0.934,0.934-0.934h2.956c0.493,0,0.934,0.259,1.194,0.674l4.901,8.066l4.928-8.066    C135.049,8.445,135.49,8.186,135.983,8.186z"/>
		<path fill="#FFFFFF" d="M146.95,8.186h2.594c0.519,0,0.934,0.415,0.934,0.934v16.287c0,0.519-0.415,0.934-0.934,0.934h-2.594    c-0.519,0-0.934-0.415-0.934-0.934V9.12C146.017,8.601,146.432,8.186,146.95,8.186z"/>
		<path fill="#FFFFFF" d="M168.502,8.186h2.619c0.493,0,0.907,0.415,0.907,0.934v16.287c0,0.519-0.415,0.934-0.907,0.934h-2.231    c-0.467,0-0.907-0.233-1.141-0.622l-6.691-9.959v9.648c0,0.519-0.415,0.934-0.908,0.934h-2.619c-0.519,0-0.934-0.415-0.934-0.934    V9.12c0-0.519,0.415-0.934,0.934-0.934h2.231c0.467,0,0.882,0.233,1.141,0.622l6.666,9.959V9.12    C167.568,8.601,167.983,8.186,168.502,8.186z"/>
		<path fill="#FFFFFF" d="M194.149,17.264c0,5.55-3.579,9.077-9.622,9.077h-5.446c-0.493,0-0.908-0.415-0.908-0.934V9.12    c0-0.519,0.415-0.934,0.908-0.934h5.446C190.57,8.186,194.149,11.713,194.149,17.264z M189.714,17.264    c0-3.216-2.23-4.902-5.187-4.902h-1.919v9.778h1.919C187.484,22.139,189.714,20.479,189.714,17.264z"/>
	</g>
	<g>
		<path fill="#FFFFFF" d="M199.573,10.557c0,1.318-1.075,2.393-2.394,2.393c-1.325,0-2.394-1.075-2.394-2.393    s1.069-2.393,2.394-2.393C198.498,8.164,199.573,9.239,199.573,10.557z M199.207,10.557c0-1.122-0.913-2.035-2.028-2.035    c-1.122,0-2.035,0.913-2.035,2.035s0.913,2.035,2.035,2.035C198.295,12.592,199.207,11.68,199.207,10.557z M197.612,10.76    l0.581,0.879c0.041,0.061,0,0.142-0.074,0.142h-0.162c-0.061,0-0.115-0.027-0.149-0.081l-0.581-0.886h-0.527v0.845    c0,0.068-0.054,0.122-0.115,0.122h-0.122c-0.067,0-0.122-0.054-0.122-0.122V9.388c0-0.061,0.055-0.115,0.122-0.115h0.777    c0.575,0,0.906,0.338,0.906,0.771C198.146,10.375,197.95,10.645,197.612,10.76z M197.24,10.483c0.345,0,0.535-0.169,0.535-0.439    s-0.189-0.446-0.535-0.446h-0.541v0.886H197.24z"/>
	</g>
</g>
</svg>
