<?xml version="1.0" encoding="utf-8"?>
<!-- Generator: Adobe Illustrator 25.0.1, SVG Export Plug-In . SVG Version: 6.00 Build 0)  -->
<svg version="1.1" id="Layer_1" xmlns="http://www.w3.org/2000/svg" xmlns:xlink="http://www.w3.org/1999/xlink" x="0px" y="0px"
	 viewBox="0 0 154.5 102.5" style="enable-background:new 0 0 154.5 102.5;" xml:space="preserve">
<path d="M121.2,31.2c-0.2-1.6-0.3-3.2-0.6-4.8c-0.7-5.9-1.5-11.7-2.3-18.7L118.1,6l-1.6-0.5C91.2-1.8,64.3-1.8,39,5.5L37.4,6
	l-0.2,1.6c-1,7.2-1.7,13-2.5,18.7c-0.2,1.6-0.5,3.1-0.7,4.7C15.2,33.6,0,38.5,0,45.9c0,5.6,8.7,9.8,21.1,12.6v24.8
	c0,4.7,2.6,8.9,6.7,11.1c6.5,3.4,16.2,8.1,25.4,8.1c5.6,0,11.1-1.4,16.1-4c3-1.4,5.3-2.4,7.9-2.4c2.3,0,4.8,1.1,7.7,2.3
	c4.1,1.8,9.3,4.1,16.3,4.1c9.2,0,18.9-4.6,25.4-8.1c4.1-2.2,6.7-6.5,6.7-11.2V58.4c12.5-2.6,21.2-6.7,21.2-12.4
	C154.5,38.7,139.7,33.8,121.2,31.2z M69,80.5c-2.5,4.3-8.5,7.2-15.2,7.2h-1.3c-7.3-0.4-13.5-3.9-15.7-8.9l-0.6-1.1l0.7-1.2
	c2.6-4.7,9.2-7.7,16.5-7.2c7.3,0.4,13.4,4,15.7,9l0.6,1.1L69,80.5z M116.4,78.8c-2.2,5-8.4,8.5-15.7,8.9h-1.3
	c-6.7,0-12.7-2.9-15.2-7.2l-0.7-1.1l0.6-1.1c2.3-5,8.4-8.6,15.7-9c7.3-0.5,13.9,2.5,16.5,7.2l0.7,1.2L116.4,78.8z M77.3,58.7
	c-46.5,0-72-8.4-72-12.7c0-2.6,9.7-6.9,28.1-9.7c-0.3,2.8-0.8,5.6-1.3,8.9l5,0.7c1-7.3,1.8-13.1,2.5-18.9c0.7-5.3,1.4-10.6,2.3-17
	c23-6.4,47.3-6.5,70.4-0.2c-3.2,1.8-14.9,4.5-34.5,4.5c-11,0-21.3-0.9-28.4-2.4l-1.2,4.9c7.3,1.6,18.1,2.6,29.5,2.6
	c5.2,0,26.7-0.2,36-4.7c0.6,4.4,1,8.4,1.5,12.4c0.7,5.8,1.5,11.7,2.3,18.7l5-0.6c-0.3-3.1-0.7-6-1-8.7c18,2.9,27.5,7,27.5,9.6
	C149.3,50.4,123.9,58.7,77.3,58.7z"/>
</svg>
