<?xml version="1.0" encoding="utf-8"?>
<!-- Generator: Adobe Illustrator 25.0.1, SVG Export Plug-In . SVG Version: 6.00 Build 0)  -->
<svg version="1.1" id="Layer_2" xmlns="http://www.w3.org/2000/svg" xmlns:xlink="http://www.w3.org/1999/xlink" x="0px" y="0px"
	 viewBox="0 0 112.2 72" style="enable-background:new 0 0 112.2 72;" xml:space="preserve">
<path d="M112.2,44.9c0-7.4-3-14.4-8.3-19.5c-4.4-4.2-10-6.8-16.1-7.4c-0.4,0-0.7-0.2-0.9-0.6C76.7,0.4,54.6-5.1,37.6,5.1
	c-8.4,5.1-14.4,13.4-16.6,23c-0.1,0.5-0.5,0.9-1.1,1C8.7,29.9,0,39.3,0,50.5c-0.2,5.6,1.9,11.1,5.8,15.1c4.6,4.1,10.5,6.4,16.7,6.4
	h64.9c0.2,0,0.4,0,0.6,0C101.7,70.5,112.2,58.8,112.2,44.9z"/>
</svg>
