<svg xmlns="http://www.w3.org/2000/svg" id="Layer_1" viewBox="0 0 275 107"><style type="text/css">  
	.st0{fill:#425968;}
	.st1{fill:none;stroke:#D7DEE5;stroke-width:0.7426;stroke-linecap:round;stroke-linejoin:round;stroke-miterlimit:7;}
	.st2{fill:none;stroke:#D7DEE5;stroke-width:0.7426;stroke-linecap:round;stroke-linejoin:round;stroke-miterlimit:6;}
	.st3{fill:#00AEEF;}
</style><path class="st0" d="M19.4 107V90.8l-7 10.6h-0.1l-7-10.5V107H0V82.2h5.9l6.6 10.5L19 82.2h5.9V107H19.4z"/><path class="st0" d="M61.6 107l-2.3-5.6H48.7l-2.3 5.6h-5.6l10.6-25h5.1l10.6 25H61.6zM54 88.5l-3.3 8.1h6.6L54 88.5z"/><path class="st0" d="M98.2 107l-5.6-8.5L87 107h-6.3l8.7-12.6 -8.4-12.2h6.4l5.3 8.1 5.3-8.1h6.3l-8.4 12.1 8.7 12.7H98.2z"/><polygon class="st1" points="211.4 55.6 255.7 2.6 263.1 72.1 272.2 31.9 "/><polygon class="st2" points="211.4 55.6 166.9 22.7 166.9 72.7 107.5 40.1 "/><path class="st3" d="M140.3 107V90.8l-7 10.6h-0.1l-7-10.5V107h-5.4V82.2h5.9l6.6 10.5 6.6-10.5h5.9V107H140.3z"/><path class="st3" d="M164.1 107V82.2h5.5V107H164.1z"/><path class="st3" d="M205.5 107l-12-15.8V107h-5.4V82.2h5.1l11.6 15.3V82.2h5.4V107H205.5z"/><path class="st3" d="M238 107h-9.7V82.2h9.7c7.9 0 13.2 5.4 13.2 12.3v0.1C251.3 101.5 245.9 107 238 107zM245.6 94.6c0-4.4-3-7.5-7.5-7.5h-4.3v15h4.3C242.5 102 245.6 99 245.6 94.6L245.6 94.6z"/><path class="st3" d="M164.1 75.4v-5.6h5.5v5.5L164.1 75.4 164.1 75.4z"/><ellipse transform="matrix(0.7507 -0.6606 0.6606 0.7507 0.291 81.002)" class="st3" cx="107.5" cy="40.1" rx="2.7" ry="2.8"/><ellipse transform="matrix(0.7506 -0.6607 0.6607 0.7506 26.6098 115.9437)" class="st3" cx="166.9" cy="22.7" rx="2.7" ry="2.7"/><path class="st3" d="M213.4 53.7c-1-1.1-2.7-1.3-3.9-0.3 -1.1 1-1.2 2.7-0.2 3.9 1 1.1 2.7 1.2 3.9 0.2C214.3 56.6 214.4 54.9 213.4 53.7z"/><path class="st3" d="M257.8 0.9c-1-1.1-2.7-1.3-3.9-0.3 -1.1 1-1.2 2.7-0.2 3.9 1 1.1 2.7 1.2 3.9 0.2C258.7 3.8 258.8 2 257.8 0.9z"/><ellipse transform="matrix(0.7507 -0.6607 0.6607 0.7507 46.7693 187.8513)" class="st3" cx="272.3" cy="32" rx="2.7" ry="2.8"/><ellipse transform="matrix(0.7507 -0.6606 0.6606 0.7507 17.9566 191.7964)" class="st3" cx="263.1" cy="72.1" rx="2.7" ry="2.7"/></svg>