<svg xmlns="http://www.w3.org/2000/svg" xmlns:xlink="http://www.w3.org/1999/xlink" id="Layer_1" viewBox="0 0 602.57 98.89"><defs><style>.cls-1{fill:none;}.cls-2{clip-path:url(#clippath);}.cls-3{fill:#fff;}.cls-4{clip-path:url(#clippath-1);}</style><clipPath id="clippath"><rect class="cls-1" x="3.15" y="2.89" width="596.27" height="93.12"/></clipPath><clipPath id="clippath-1"><rect class="cls-1" x="3.15" y="2.89" width="596.27" height="93.12"/></clipPath></defs><g id="Artwork_16"><g class="cls-2"><g class="cls-4"><path class="cls-3" d="M137.88,50.57c-.22-.75-1.3-4.19-4.63-6.63-2.29-1.68-4.59-2.1-6.47-2.44-4.82-.88-5.99,.64-9.38-.83-2.01-.87-3.81-2.36-4.29-2.76-.9-.75-1.04-1-2.59-2.59-3.19-3.27-4.02-3.68-6.18-6.18-1.62-1.88-2.1-2.76-2.29-3.12-.3-.58-1.02-2.05-1.41-4.48-.62-3.87,.51-4.51-.04-7.82,0-.01,0-.03,0-.05,0,0,0-.01,0-.02-.07-.38-.15-.74-.24-1.09-.24-1.01-.6-1.96-1.06-2.85-.11-.22-.21-.41-.31-.58-.08-.13-.15-.26-.23-.39-.07-.11-.12-.2-.16-.25-.09-.14-.35-.52-.73-.99,0,0,0,0,0,0-.87-1.09-2.44-2.74-4.49-3.45-.02,0-.03,0-.05-.01-3.15-1.5-7.05-1.71-11.18,.26-4.89,2.95-6.36,6.11-6.42,9.68-.06,.49-.1,.99-.1,1.49,0,1.7,.34,3.31,.95,4.79,.38,1.72,.81,3.53,1.16,5.45,.36,2.02,.64,4.05,.81,6.06,.02,.38,.02,.56,.03,.91,0,.05,0,.15,0,.28,0,.21,0,.38,0,.48,0,.04,0,.17,0,.34,0,.41-.02,.79-.03,.92-.05,1.02-.25,2.41-.25,2.41-.09,.64-.19,1.28-.44,2.62-.24,1.32-.36,2-.55,2.93-.4,1.97-.62,3.05-1.05,4.52-.39,1.33-.78,2.39-1.03,3.02-.46,1.19-.87,2.06-1.28,2.91-.62,1.3-.93,1.95-1.34,2.6-.46,.73-1.09,1.7-2.21,2.66-.71,.61-1.36,1-1.97,1.36-.3,.17-1.04,.61-1.98,1-.34,.14-.75,.31-1.09,.44-.5,.15-.99,.31-1.53,.42-1.09,.22-2.19,.29-3.3,.25-.15,0-.32-.02-.51-.04-.62-.06-1.09-.15-1.33-.19-.15-.03-.63-.12-1.26-.3-.15-.04-1.04-.3-1.93-.68-1-.43-1.91-.98-3.01-1.77-1.26-.91-2.29-1.84-4.3-3.67-.47-.43-.46-.42-2.9-2.68-2.33-2.16-2.27-2.1-2.33-2.15-1.29-1.28-3.56-3.51-4.65-6.96-.53-1.69-.62-3.13-.65-3.87,0-.03,0-.05,0-.07,.01-.31,.03-.61,.07-.91,.11-.87,.16-1.73,.17-2.58,.04-.45,.07-.96,.07-1.62,0-.5-.03-2.38-.56-4.77-.01-.05-.03-.1-.04-.15-.28-1.44-.74-2.8-1.34-4.09-.16-.37-.29-.63-.35-.75-.02-.03-.03-.06-.05-.09-.01-.02-.03-.05-.04-.07-.92-1.75-1.96-2.87-1.96-2.87h0c-3.17-3.75-7.9-6.13-13.19-6.13-9.54,0-17.26,7.73-17.26,17.26,0,2.55,.57,4.96,1.56,7.14,1.79,5.21,5.72,9.36,11.46,9.95,0,0,.01,.01,.02,.02,.03,.01,.3,.03,.79,.06h.01c.22,.01,.47,.03,.79,.04,.45,.02,.92,.05,1.55,.07,.5,.02,.96,.03,1.54,.04,1.29,.02,2.28,.03,2.51,.03,2.93,.01,4.39,.02,6.28,.28,.31,.04,.59,.09,.86,.13,.08,.02,.16,.03,.24,.04,.05,0,.1,.02,.15,.03,1.43,.29,2.79,.66,4.1,1.12,0,0,0,0,0,0,.04,.01,.08,.03,.12,.05,2.67,1.02,4.49,2.29,4.91,2.59,.75,.54,1.29,1,2.36,1.92,.97,.83,1.69,1.52,2.3,2.09,1.24,1.17,2.12,2.09,2.32,2.28,.24,.25,.82,.88,1.99,2.13,1.14,1.23,1.29,1.39,1.51,1.67,.33,.4,.59,.72,.81,1,.34,.55,.61,1.05,.83,1.54,.04,.1,.08,.22,.15,.32,2.15,5.02-1.68,6.87,.27,15.31,1.56,6.78,6.23,10.93,11.64,12.55,1.71,.57,3.54,.89,5.44,.89,2.49,0,4.85-.54,6.98-1.48,4.32-1.78,7.93-5.27,9.44-10.45,0-.02,0-.03,0-.05,.53-1.67,.83-3.44,.83-5.28,0-3.56-1.08-6.86-2.92-9.61-1.04-2.2-2.2-4.34-3.14-6.65,0-.04-.03-.1-.08-.2-.15-.38-.3-.77-.44-1.17-.04-.12-.06-.22-.07-.25,0,0-.07-.24-.13-.48-.53-2.11-.42-4.96-.42-4.96,.07-1.73,.3-3.03,.51-4.2,.22-1.19,.42-2.02,.79-3.49,.29-1.16,.56-2.13,1.31-4.73,.76-2.65,1.14-3.97,1.2-4.12,0,0,1.13-2.88,3.07-5.4,.3-.39,.6-.74,.6-.74,.21-.25,.4-.44,.5-.55,0,0,.06-.07,.14-.14,.82-.73,1.65-1.66,2.74-2.23,1.8-.94,3.86-1.28,6.36-.17,.99,.44,1.84,1.13,3.53,2.49,.89,.72,2.04,1.72,4.63,4.37,2.48,2.55,3.72,3.82,4.19,4.51,.5,.72,2.3,3.46,3.06,7.47,.44,2.33,0,2.3,.46,5.21,.4,2.57,.74,4.73,2.14,6.99,1.74,2.8,4.12,4.17,4.68,4.47,4.31,2.38,8.51,1.37,9.27,1.18,5.16-1.33,7.54-5.43,7.91-6.1,.37-.66,2.54-4.71,1.09-9.69"/><path class="cls-3" d="M203.66,22.3h8.93c1.48,0,2.72,1.24,2.72,2.8v48.77c0,1.55-1.24,2.8-2.72,2.8h-7.84c-1.48,0-2.72-1.24-2.72-2.8v-29.51l-13.35,21.98c-.54,.85-1.4,1.32-2.41,1.32h-1.79c-.93,0-1.86-.47-2.33-1.32l-13.36-21.98v29.51c0,1.55-1.24,2.8-2.79,2.8h-7.77c-1.55,0-2.8-1.24-2.8-2.8V25.1c0-1.55,1.24-2.8,2.8-2.8h8.85c1.48,0,2.8,.78,3.57,2.02l14.68,24.15,14.75-24.15c.78-1.24,2.1-2.02,3.57-2.02"/><path class="cls-3" d="M269.96,74.25l-2.41-7.77h-20.58l-2.41,7.77c-.46,1.4-1.79,2.41-3.34,2.41h-8.46c-1.4,0-2.41-1.4-1.94-2.8l17.78-49.31c.46-1.32,1.79-2.25,3.26-2.25h10.8c1.48,0,2.8,.93,3.26,2.25l17.7,49.31c.54,1.4-.46,2.8-1.94,2.8h-8.39c-1.55,0-2.87-1.01-3.34-2.41m-5.59-17.78l-7.15-22.67-7.07,22.67h14.21Z"/><path class="cls-3" d="M342.56,76.66h-8.93c-1.47,0-2.8-.78-3.49-1.94l-9.39-15.14-9.32,15.14c-.7,1.16-2.1,1.94-3.49,1.94h-8.93c-1.63,0-2.64-1.79-1.79-3.18l15.53-24.77-14.21-23.22c-.85-1.4,.16-3.18,1.79-3.18h8.93c1.48,0,2.8,.78,3.57,2.02l7.92,13.59,8-13.59c.78-1.24,2.1-2.02,3.57-2.02h8.93c1.63,0,2.64,1.79,1.79,3.18l-14.21,23.22,15.53,24.77c.85,1.4-.15,3.18-1.79,3.18"/><path class="cls-3" d="M409.03,22.3h8.93c1.48,0,2.72,1.24,2.72,2.8v48.77c0,1.55-1.24,2.8-2.72,2.8h-7.84c-1.47,0-2.72-1.24-2.72-2.8v-29.51l-13.36,21.98c-.54,.85-1.4,1.32-2.41,1.32h-1.79c-.93,0-1.86-.47-2.33-1.32l-13.36-21.98v29.51c0,1.55-1.24,2.8-2.79,2.8h-7.77c-1.55,0-2.8-1.24-2.8-2.8V25.1c0-1.55,1.24-2.8,2.8-2.8h8.85c1.48,0,2.8,.78,3.57,2.02l14.67,24.15,14.76-24.15c.78-1.24,2.1-2.02,3.57-2.02"/><path class="cls-3" d="M441.86,22.3h7.77c1.55,0,2.8,1.24,2.8,2.8v48.77c0,1.55-1.24,2.8-2.8,2.8h-7.77c-1.55,0-2.8-1.24-2.8-2.8V25.1c0-1.55,1.24-2.8,2.8-2.8"/><path class="cls-3" d="M506.39,22.3h7.84c1.48,0,2.72,1.24,2.72,2.8v48.77c0,1.55-1.24,2.8-2.72,2.8h-6.68c-1.4,0-2.72-.7-3.42-1.86l-20.03-29.82v28.89c0,1.55-1.24,2.8-2.72,2.8h-7.84c-1.55,0-2.8-1.24-2.8-2.8V25.1c0-1.55,1.24-2.8,2.8-2.8h6.68c1.4,0,2.64,.7,3.42,1.86l19.96,29.82V25.1c0-1.55,1.24-2.8,2.8-2.8"/><path class="cls-3" d="M583.18,49.48c0,16.62-10.72,27.18-28.81,27.18h-16.31c-1.48,0-2.72-1.24-2.72-2.8V25.1c0-1.55,1.24-2.8,2.72-2.8h16.31c18.09,0,28.81,10.56,28.81,27.18m-13.28,0c0-9.63-6.68-14.68-15.53-14.68h-5.75v29.28h5.75c8.85,0,15.53-4.97,15.53-14.6"/><path class="cls-3" d="M599.42,29.4c0,3.95-3.22,7.17-7.17,7.17s-7.17-3.22-7.17-7.17,3.2-7.17,7.17-7.17,7.17,3.22,7.17,7.17m-1.1,0c0-3.36-2.73-6.09-6.07-6.09s-6.09,2.73-6.09,6.09,2.73,6.09,6.09,6.09,6.07-2.73,6.07-6.09m-4.78,.61l1.74,2.63c.12,.18,0,.43-.22,.43h-.49c-.18,0-.34-.08-.45-.24l-1.74-2.65h-1.58v2.53c0,.2-.16,.37-.34,.37h-.37c-.2,0-.36-.16-.36-.37v-6.8c0-.18,.16-.34,.36-.34h2.33c1.72,0,2.71,1.01,2.71,2.31,0,.99-.59,1.8-1.6,2.15m-1.11-.83c1.03,0,1.6-.51,1.6-1.32s-.57-1.34-1.6-1.34h-1.62v2.65h1.62Z"/></g></g></g></svg>
