<?xml version="1.0" encoding="UTF-8"?><svg version="1.1" viewBox="0 0 251.2 25" xmlns="http://www.w3.org/2000/svg" xmlns:xlink="http://www.w3.org/1999/xlink"><g fill="#005f83"><path d="M19.4 24.8v-16.2l-7 10.6h-.1l-7-10.5v16.1h-5.3v-24.8h5.9l6.6 10.5 6.5-10.5h5.9v24.8h-5.5Z"></path><path d="M61.6 25l-2.3-5.6h-10.6l-2.3 5.6h-5.6l10.6-25h5.1l10.6 25h-5.5Zm-7.6-18.5l-3.3 8.1h6.6l-3.3-8.1Z"></path><path d="M98.2 24.8l-5.6-8.5 -5.6 8.5h-6.3l8.7-12.6 -8.4-12.2h6.4l5.3 8.1 5.3-8.1h6.3l-8.4 12.1 8.7 12.7h-6.4Z"></path></g><path fill="#00AEEF" d="M140.3 24.8v-16.2l-7 10.6h-.1l-7-10.5v16.1h-5.4v-24.8h5.9l6.6 10.5 6.6-10.5h5.9v24.8h-5.5Z"></path><g fill="#00AEEF"><path d="M164.1 24.8v-24.8h5.5v24.8h-5.5Z"></path><path d="M205.5 24.8l-12-15.8v15.8h-5.4v-24.8h5.1l11.6 15.3v-15.3h5.4v24.8h-4.7Z"></path><path d="M238 24.8h-9.7v-24.8h9.7c7.9 0 13.2 5.4 13.2 12.3v.1c.1 6.9-5.3 12.4-13.2 12.4Zm7.6-12.4c0-4.4-3-7.5-7.5-7.5h-4.3v15h4.3c4.4-.1 7.5-3.1 7.5-7.5v0Z"></path></g></svg>
